<?xml version="1.0" standalone="no"?>
<!DOCTYPE svg PUBLIC "-//W3C//DTD SVG 20010904//EN"
 "http://www.w3.org/TR/2001/REC-SVG-20010904/DTD/svg10.dtd">
<svg version="1.0" xmlns="http://www.w3.org/2000/svg"
 width="295.000000pt" height="295.000000pt" viewBox="0 0 295.000000 295.000000"
 preserveAspectRatio="xMidYMid meet">
<metadata>
Created by potrace 1.11, written by Peter Selinger 2001-2013
</metadata>
<g transform="translate(0.000000,295.000000) scale(0.100000,-0.100000)"
fill="#000000" stroke="none">
<path d="M431 2510 c-74 -16 -168 -66 -219 -117 -98 -98 -128 -212 -119 -448
8 -213 63 -392 182 -593 151 -257 412 -522 701 -712 182 -120 422 -230 502
-230 50 0 161 39 277 97 133 66 163 88 221 161 124 157 211 422 273 832 l19
125 1 -90 c3 -284 -67 -590 -175 -765 -24 -40 -43 -75 -41 -77 8 -7 107 119
146 186 86 148 157 389 205 691 l24 155 1 -86 c3 -249 -53 -517 -145 -701
l-36 -73 29 28 c41 39 114 166 156 272 45 114 99 335 132 535 l25 155 -5 -150
c-7 -236 -47 -435 -121 -594 -19 -41 -32 -76 -30 -78 8 -8 99 105 167 206 173
256 259 511 259 763 0 185 -41 301 -138 389 -67 61 -112 85 -209 110 -136 34
-380 20 -517 -32 -105 -39 -313 -181 -496 -340 -225 -195 -463 -341 -635 -389
-137 -39 -194 -21 -241 76 -55 112 -32 256 50 319 30 23 50 29 109 33 86 5
245 -20 301 -48 22 -11 42 -18 44 -15 9 8 -87 135 -156 207 -86 89 -173 149
-258 180 -67 23 -212 33 -283 18z"/>
</g>
</svg>
